<svg xmlns="http://www.w3.org/2000/svg" width="313" height="61" viewBox="0 0 313 61" fill="none"><path fill-rule="evenodd" clip-rule="evenodd" d="M10.4952 9.80459C11.0535 9.80459 11.4994 9.35953 11.4994 8.80226C11.4994 8.24499 11.0535 7.79993 10.4952 7.79993C10.0493 7.79993 9.60156 8.24499 9.60156 8.80226C9.60156 9.35953 10.0474 9.80459 10.4952 9.80459Z" fill="#800000"></path><path fill-rule="evenodd" clip-rule="evenodd" d="M13.2869 7.46519C13.8452 7.46519 14.2911 7.02013 14.2911 6.46285C14.2911 5.90558 13.8452 5.45862 13.2869 5.45862C12.7286 5.45862 12.2827 5.90368 12.2827 6.46285C12.2827 7.02203 12.7286 7.46519 13.2869 7.46519Z" fill="#800000"></path><path fill-rule="evenodd" clip-rule="evenodd" d="M16.8597 5.45865C17.418 5.45865 17.8657 5.01359 17.8657 4.45631C17.8657 3.89904 17.4199 3.45398 16.8597 3.45398C16.2994 3.45398 15.8555 3.89904 15.8555 4.45631C15.8555 5.01359 16.3014 5.45865 16.8597 5.45865Z" fill="#800000"></path><path fill-rule="evenodd" clip-rule="evenodd" d="M20.2093 3.78683C20.7676 3.78683 21.2134 3.34177 21.2134 2.7845C21.2134 2.22722 20.7676 1.78217 20.2093 1.78217C19.651 1.78217 19.2051 2.22722 19.2051 2.7845C19.2051 3.34177 19.651 3.78683 20.2093 3.78683Z" fill="#800000"></path><path fill-rule="evenodd" clip-rule="evenodd" d="M24.1155 2.78451C24.6738 2.78451 25.1197 2.33945 25.1197 1.78218C25.1197 1.2249 24.6738 0.779846 24.1155 0.779846C23.5572 0.779846 23.1113 1.2249 23.1113 1.78218C23.1113 2.33945 23.5572 2.78451 24.1155 2.78451Z" fill="#800000"></path><path fill-rule="evenodd" clip-rule="evenodd" d="M27.5779 2.11497C28.1362 2.11497 28.4716 1.55769 28.4716 1.11263C28.4716 0.555359 28.1362 0.108398 27.5779 0.108398C27.0196 0.108398 26.5737 0.553457 26.5737 1.11263C26.5737 1.55769 27.0196 2.11497 27.5779 2.11497Z" fill="#800000"></path><path fill-rule="evenodd" clip-rule="evenodd" d="M31.5965 2.00467C32.1548 2.00467 32.6007 1.55961 32.6007 1.00233C32.6007 0.445059 32.1548 0 31.5965 0C31.0382 0 30.5923 0.445059 30.5923 1.00233C30.5923 1.55961 31.0382 2.00467 31.5965 2.00467Z" fill="#800000"></path><path fill-rule="evenodd" clip-rule="evenodd" d="M35.1696 2.44973C35.7279 2.44973 36.1757 2.00468 36.1757 1.4474C36.1757 0.890127 35.7298 0.445068 35.1696 0.445068C34.7237 0.445068 34.2778 0.890127 34.2778 1.4474C34.2778 2.00468 34.7237 2.44973 35.1696 2.44973Z" fill="#800000"></path><path fill-rule="evenodd" clip-rule="evenodd" d="M39.4128 3.2295C39.9711 3.2295 40.3065 2.78444 40.3065 2.22716C40.3065 1.7821 39.9711 1.33514 39.4128 1.33514C38.8545 1.33514 38.4067 1.7802 38.4067 2.22716C38.4067 2.78444 38.8545 3.2295 39.4128 3.2295Z" fill="#800000"></path><path fill-rule="evenodd" clip-rule="evenodd" d="M42.9875 4.79105C43.5439 4.79105 43.9917 4.34599 43.9917 3.78682C43.9917 3.22764 43.5458 2.78448 42.9875 2.78448C42.4292 2.78448 41.9814 3.22954 41.9814 3.78682C41.9814 4.34409 42.4273 4.79105 42.9875 4.79105Z" fill="#800000"></path><path fill-rule="evenodd" clip-rule="evenodd" d="M46.5584 6.57315C47.1167 6.57315 47.4501 6.12809 47.4501 5.57081C47.4501 5.01354 47.1167 4.56848 46.5584 4.56848C46.0001 4.56848 45.5542 5.01354 45.5542 5.57081C45.5542 6.12809 46.0001 6.57315 46.5584 6.57315Z" fill="#800000"></path><path fill-rule="evenodd" clip-rule="evenodd" d="M49.2371 8.69193C49.7954 8.69193 50.2432 8.24687 50.2432 7.6896C50.2432 7.13232 49.7973 6.68536 49.2371 6.68536C48.6769 6.68536 48.2329 7.13042 48.2329 7.6896C48.2329 8.24877 48.6788 8.69193 49.2371 8.69193Z" fill="#800000"></path><path fill-rule="evenodd" clip-rule="evenodd" d="M51.6936 10.921C52.2519 10.921 52.6997 10.476 52.6997 9.91872C52.6997 9.36144 52.2539 8.91638 51.6936 8.91638C51.1334 8.91638 50.6895 9.36144 50.6895 9.91872C50.6895 10.476 51.1353 10.921 51.6936 10.921Z" fill="#800000"></path><path fill-rule="evenodd" clip-rule="evenodd" d="M53.9285 13.8177C54.4868 13.8177 54.9327 13.3727 54.9327 12.8135C54.9327 12.2543 54.4868 11.8112 53.9285 11.8112C53.4826 11.8112 52.9243 12.2562 52.9243 12.8135C52.9243 13.3708 53.4826 13.8177 53.9285 13.8177Z" fill="#800000"></path><path fill-rule="evenodd" clip-rule="evenodd" d="M56.3846 17.2716C56.9429 17.2716 57.3887 16.8266 57.3887 16.2693C57.3887 15.712 56.9429 15.2651 56.3846 15.2651C55.8262 15.2651 55.3804 15.7101 55.3804 16.2693C55.3804 16.8285 55.8262 17.2716 56.3846 17.2716Z" fill="#800000"></path><path fill-rule="evenodd" clip-rule="evenodd" d="M58.1707 21.7299C58.6185 21.7299 59.0644 21.2848 59.0644 20.7276C59.0644 20.1703 58.6185 19.7252 58.1707 19.7252C57.6143 19.7252 57.1665 20.1703 57.1665 20.7276C57.1665 21.2848 57.6124 21.7299 58.1707 21.7299Z" fill="#800000"></path><path fill-rule="evenodd" clip-rule="evenodd" d="M58.2827 24.7388C58.2827 25.1838 58.7286 25.6308 59.2888 25.6308C59.849 25.6308 60.2949 25.1857 60.2949 24.7388C60.2949 24.1815 59.8471 23.7365 59.2888 23.7365C58.7305 23.7365 58.2827 24.1815 58.2827 24.7388Z" fill="#800000"></path><path fill-rule="evenodd" clip-rule="evenodd" d="M58.9517 29.3092C58.9517 29.8665 59.287 30.3115 59.8453 30.3115C60.4036 30.3115 60.8514 29.8665 60.8514 29.3092C60.8514 28.8641 60.4055 28.4172 59.8453 28.4172C59.2851 28.4172 58.9517 28.8622 58.9517 29.3092Z" fill="#800000"></path><path fill-rule="evenodd" clip-rule="evenodd" d="M59.6223 32.5406C59.064 32.5406 58.6182 32.9857 58.6182 33.5449C58.6182 34.1041 59.064 34.5472 59.6223 34.5472C60.1807 34.5472 60.6265 34.1022 60.6265 33.5449C60.6265 32.9876 60.1807 32.5406 59.6223 32.5406Z" fill="#800000"></path><path fill-rule="evenodd" clip-rule="evenodd" d="M58.9515 36.9988C58.3951 36.9988 57.9473 37.4439 57.9473 38.0031C57.9473 38.4481 58.3932 39.0054 58.9515 39.0054C59.5098 39.0054 59.9575 38.45 59.9575 38.0031C59.9575 37.4458 59.5117 36.9988 58.9515 36.9988Z" fill="#800000"></path><path fill-rule="evenodd" clip-rule="evenodd" d="M57.6119 41.1223C57.166 41.1223 56.7183 41.5673 56.7183 42.1246C56.7183 42.6819 57.1641 43.1288 57.6119 43.1288C58.1683 43.1288 58.618 42.6838 58.618 42.1246C58.618 41.5654 58.1702 41.1223 57.6119 41.1223Z" fill="#800000"></path><path fill-rule="evenodd" clip-rule="evenodd" d="M55.6038 44.6866C55.0455 44.6866 54.5996 45.1335 54.5996 45.6908C54.5996 46.2481 55.0455 46.6951 55.6038 46.6951C56.1621 46.6951 56.608 46.2481 56.608 45.6908C56.608 45.1335 56.1621 44.6866 55.6038 44.6866Z" fill="#800000"></path><path fill-rule="evenodd" clip-rule="evenodd" d="M53.1457 48.2546C52.5874 48.2546 52.1396 48.6997 52.1396 49.2589C52.1396 49.818 52.5855 50.2612 53.1457 50.2612C53.7059 50.2612 54.1499 49.8161 54.1499 49.2589C54.1499 48.7016 53.704 48.2546 53.1457 48.2546Z" fill="#800000"></path><path fill-rule="evenodd" clip-rule="evenodd" d="M50.3559 51.0962C49.7099 51.0962 49.1821 51.6211 49.1821 52.2678C49.1821 52.9145 49.708 53.4394 50.3559 53.4394C51.0038 53.4394 51.5278 52.9145 51.5278 52.2678C51.5278 51.6211 51.0019 51.0962 50.3559 51.0962Z" fill="#800000"></path><path fill-rule="evenodd" clip-rule="evenodd" d="M47.7873 53.4926C47.229 53.4926 46.7812 53.9377 46.7812 54.4949C46.7812 55.0522 47.2271 55.4992 47.7873 55.4992C48.3475 55.4992 48.7934 55.0541 48.7934 54.4949C48.7934 53.9358 48.3456 53.4926 47.7873 53.4926Z" fill="#800000"></path><path fill-rule="evenodd" clip-rule="evenodd" d="M44.8836 55.1644C44.3253 55.1644 43.8794 55.6095 43.8794 56.1668C43.8794 56.724 44.3253 57.171 44.8836 57.171C45.4419 57.171 45.8878 56.7259 45.8878 56.1668C45.8878 55.6076 45.4419 55.1644 44.8836 55.1644Z" fill="#800000"></path><path fill-rule="evenodd" clip-rule="evenodd" d="M41.6463 56.9465C41.088 56.9465 40.6421 57.3935 40.6421 57.9508C40.6421 58.3958 41.088 58.955 41.6463 58.955C42.2046 58.955 42.6505 58.3977 42.6505 57.9508C42.6505 57.3954 42.2046 56.9465 41.6463 56.9465Z" fill="#800000"></path><path fill-rule="evenodd" clip-rule="evenodd" d="M37.4025 58.1733C36.9566 58.1733 36.5107 58.6184 36.5107 59.1757C36.5107 59.733 36.9566 60.178 37.4025 60.178C37.9608 60.178 38.4067 59.733 38.4067 59.1757C38.4067 58.6184 37.9608 58.1733 37.4025 58.1733Z" fill="#800000"></path><path fill-rule="evenodd" clip-rule="evenodd" d="M32.6028 58.9531C32.0445 58.9531 31.5986 59.3982 31.5986 59.8451C31.5986 60.4005 32.0445 60.8475 32.6028 60.8475C33.1611 60.8475 33.607 60.4024 33.607 59.8451C33.607 59.3982 33.1611 58.9531 32.6028 58.9531Z" fill="#800000"></path><path fill-rule="evenodd" clip-rule="evenodd" d="M27.5779 58.9531C27.0196 58.9531 26.5737 59.3982 26.5737 59.8451C26.5737 60.4005 27.0196 60.8475 27.5779 60.8475C28.1362 60.8475 28.4716 60.4024 28.4716 59.8451C28.4716 59.3982 28.1362 58.9531 27.5779 58.9531Z" fill="#800000"></path><path fill-rule="evenodd" clip-rule="evenodd" d="M23.3343 58.2837C22.776 58.2837 22.3301 58.7287 22.3301 59.2879C22.3301 59.8471 22.776 60.2903 23.3343 60.2903C23.8926 60.2903 24.3384 59.8452 24.3384 59.2879C24.3384 58.7307 23.8926 58.2837 23.3343 58.2837Z" fill="#800000"></path><path fill-rule="evenodd" clip-rule="evenodd" d="M19.093 56.9465C18.5347 56.9465 18.0869 57.3935 18.0869 57.9508C18.0869 58.508 18.5328 58.955 19.093 58.955C19.6532 58.955 20.0972 58.508 20.0972 57.9508C20.0972 57.3935 19.6513 56.9465 19.093 56.9465Z" fill="#800000"></path><path fill-rule="evenodd" clip-rule="evenodd" d="M14.9617 54.6072C14.4034 54.6072 13.9575 55.0522 13.9575 55.6114C13.9575 56.1706 14.4034 56.6156 14.9617 56.6156C15.52 56.6156 15.9659 56.1687 15.9659 55.6114C15.9659 55.0541 15.52 54.6072 14.9617 54.6072Z" fill="#800000"></path><path fill-rule="evenodd" clip-rule="evenodd" d="M10.8308 51.8208C10.2725 51.8208 9.82666 52.2659 9.82666 52.8231C9.82666 53.3804 10.2725 53.8274 10.8308 53.8274C11.3891 53.8274 11.835 53.3823 11.835 52.8231C11.835 52.264 11.3891 51.8208 10.8308 51.8208Z" fill="#800000"></path><path fill-rule="evenodd" clip-rule="evenodd" d="M7.81457 48.8119C7.36868 48.8119 6.9209 49.2588 6.9209 49.8161C6.9209 50.3734 7.36678 50.8204 7.81457 50.8204C8.37287 50.8204 8.82066 50.3734 8.82066 49.8161C8.82066 49.2588 8.37477 48.8119 7.81457 48.8119Z" fill="#800000"></path><path fill-rule="evenodd" clip-rule="evenodd" d="M5.35802 45.5786C4.79972 45.5786 4.46436 46.0236 4.46436 46.5828C4.46436 47.142 4.79972 47.587 5.35802 47.587C5.91633 47.587 6.36411 47.1401 6.36411 46.5828C6.36411 46.0255 5.91823 45.5786 5.35802 45.5786Z" fill="#800000"></path><path fill-rule="evenodd" clip-rule="evenodd" d="M3.34972 41.7918C2.90384 41.7918 2.45605 42.2369 2.45605 42.7941C2.45605 43.3514 2.90194 43.7965 3.34972 43.7965C3.90803 43.7965 4.35391 43.3514 4.35391 42.7941C4.35391 42.2369 3.90803 41.7918 3.34972 41.7918Z" fill="#800000"></path><path d="M1.90083 39.7827C2.45542 39.7815 2.90399 39.3317 2.90273 38.7781C2.90147 38.2245 2.45087 37.7768 1.89627 37.7781C1.34168 37.7793 0.89311 38.2291 0.894368 38.7827C0.895627 39.3362 1.34623 39.784 1.90083 39.7827Z" fill="#800000"></path><path fill-rule="evenodd" clip-rule="evenodd" d="M2.12067 34.7678C2.12067 34.2125 1.67479 33.7655 1.11649 33.7655C0.558186 33.7655 0.112305 34.2106 0.112305 34.7678C0.112305 35.3251 0.558186 35.7721 1.11649 35.7721C1.67479 35.7721 2.12067 35.327 2.12067 34.7678Z" fill="#800000"></path><path fill-rule="evenodd" clip-rule="evenodd" d="M0.893667 31.9834C1.45197 31.9834 1.89785 31.5364 1.89785 30.9791C1.89785 30.4219 1.45197 29.9768 0.893667 29.9768C0.447786 29.9768 0 30.4219 0 30.9791C0 31.5364 0.445881 31.9834 0.893667 31.9834Z" fill="#800000"></path><path fill-rule="evenodd" clip-rule="evenodd" d="M1.11649 28.4171C1.67479 28.4171 2.12067 27.9721 2.12067 27.4148C2.12067 26.8575 1.67479 26.4125 1.11649 26.4125C0.558186 26.4125 0.112305 26.8575 0.112305 27.4148C0.112305 27.9721 0.558186 28.4171 1.11649 28.4171Z" fill="#800000"></path><path fill-rule="evenodd" clip-rule="evenodd" d="M1.78543 23.959C2.34374 23.959 2.78962 23.5139 2.78962 22.9566C2.78962 22.3993 2.34374 21.9543 1.78543 21.9543C1.22713 21.9543 0.78125 22.3993 0.78125 22.9566C0.78125 23.5139 1.22713 23.959 1.78543 23.959Z" fill="#800000"></path><path fill-rule="evenodd" clip-rule="evenodd" d="M3.34989 19.7252C3.90819 19.7252 4.35407 19.2801 4.35407 18.7229C4.35407 18.1656 3.90819 17.7186 3.34989 17.7186C2.79158 17.7186 2.3457 18.1637 2.3457 18.7229C2.3457 19.282 2.79158 19.7252 3.34989 19.7252Z" fill="#800000"></path><path fill-rule="evenodd" clip-rule="evenodd" d="M5.47098 15.8243C6.02928 15.8243 6.47517 15.3792 6.47517 14.822C6.47517 14.2647 6.02928 13.9299 5.47098 13.9299C4.91268 13.9299 4.4668 14.2647 4.4668 14.822C4.4668 15.3792 4.91268 15.8243 5.47098 15.8243Z" fill="#800000"></path><path fill-rule="evenodd" clip-rule="evenodd" d="M7.70389 12.7032C8.2622 12.7032 8.70808 12.2581 8.70808 11.7008C8.70808 11.1435 8.2622 10.6985 7.70389 10.6985C7.14559 10.6985 6.69971 11.1435 6.69971 11.7008C6.69971 12.2581 7.14559 12.7032 7.70389 12.7032Z" fill="#800000"></path><path fill-rule="evenodd" clip-rule="evenodd" d="M40.4801 18.0134C40.1237 19.5008 40.2114 19.885 40.3295 20.0542C40.3753 20.1189 40.4267 20.155 40.4763 20.1741L40.5868 20.2159C40.6382 20.2349 41.7529 20.6153 42.9324 19.1299V20.5602H44.6092L44.3329 20.2749C44.3329 20.2749 44.1576 20.0923 44.1576 19.8336V10.8621H40.2495V12.3475L40.4496 12.3076C40.4648 12.3037 41.9416 12.0108 42.9305 11.9785V14.6108C42.5284 14.8581 40.884 15.9783 40.4782 18.0115L40.4801 18.0134ZM42.9324 15.9194V17.8917C42.1702 19.0823 41.7091 19.2973 41.5014 19.3201C41.4328 19.3258 41.3871 19.3144 41.3585 19.3011C41.2442 18.0248 42.3817 16.5489 42.9305 15.9194H42.9324Z" fill="#800000"></path><path fill-rule="evenodd" clip-rule="evenodd" d="M16.4692 12.5909V20.5601H17.6963V17.9963H18.9254V20.5601H20.1525V10.864H18.9254V17.3287H17.6963V10.864H16.1891L16.1357 11.1892C16.3015 11.2443 16.4673 11.7446 16.4673 12.5909H16.4692Z" fill="#800000"></path><path fill-rule="evenodd" clip-rule="evenodd" d="M26.8519 15.3735C28.5973 14.5747 29.4681 13.7435 29.4357 12.899C29.39 11.6476 27.3854 10.9058 27.2997 10.8735L27.2711 10.864H25.7334V20.5601H26.85V15.3735H26.8519ZM26.8519 14.4282V11.7921C27.414 11.9214 28.4125 12.2562 28.4963 12.7868C28.5459 13.1007 28.2905 13.6332 26.8519 14.4282Z" fill="#800000"></path><path fill-rule="evenodd" clip-rule="evenodd" d="M36.9014 17.1043H38.5763V19.556H39.6929V10.4189H38.5763V16.4367H37.0119V10.4189H35.6724V19.6682H36.9014V17.1043Z" fill="#800000"></path><path fill-rule="evenodd" clip-rule="evenodd" d="M31.0385 11.4213H33.2164V13.4431C32.8753 14.1259 30.6688 18.5669 30.444 19.7804H28.5347L28.6566 20.0219C28.91 20.5279 29.1501 21.1764 29.0949 21.3438C29.072 21.4123 29.0377 21.5169 29.1368 21.5892L29.2359 21.6614L29.335 21.5911C29.3521 21.5777 29.3731 21.5435 29.3978 21.4941H29.3998C29.3998 21.4941 29.4017 21.4865 29.4036 21.4807C29.4893 21.2924 29.5998 20.9159 29.6398 20.6724H34.7999C34.8494 20.9501 34.9809 21.3552 35.0133 21.4503L35.2038 22.0228L35.3353 21.4332C35.5411 20.5145 36.1528 20.0904 36.1585 20.0866L36.6177 19.7804H34.2244V10.4189H29.9809V11.7256L30.2115 11.6343C30.3582 11.5753 30.7946 11.4232 31.0423 11.4232L31.0385 11.4213ZM33.3269 15.3907V19.7804H31.6501C31.6863 18.7305 32.7763 16.4729 33.3269 15.3907Z" fill="#800000"></path><path fill-rule="evenodd" clip-rule="evenodd" d="M23.502 11.9652V14.5024C23.0999 14.7496 21.4479 15.8794 20.9372 18.0191C20.5694 19.8564 20.8705 20.0371 20.9696 20.096C21.021 20.1265 21.0801 20.1379 21.1335 20.1265C21.4345 20.193 22.4711 20.3091 23.502 19.1013V20.446H24.7863L24.8396 20.1208C24.6243 20.0504 24.6186 19.7252 24.6186 19.7233V10.7517H20.7104V12.2352L20.9086 12.1972C20.9258 12.1934 22.513 11.9005 23.502 11.9633V11.9652ZM23.502 15.906V17.8936C22.7417 19.0842 22.2806 19.2991 22.0729 19.3219C22.0043 19.3295 21.9585 19.3162 21.93 19.3029C21.8137 17.9468 22.9532 16.5108 23.502 15.9079V15.906Z" fill="#800000"></path><path fill-rule="evenodd" clip-rule="evenodd" d="M31.206 16.7144C31.206 15.577 30.3295 14.6526 29.2529 14.6526C28.1763 14.6526 27.2998 15.577 27.2998 16.7144C27.2998 17.9335 28.1573 18.8883 29.2529 18.8883C30.3486 18.8883 31.206 17.9335 31.206 16.7144ZM29.2529 15.7672C29.7388 15.7672 30.0913 16.1647 30.0913 16.7144C30.0913 17.2983 29.7159 17.7738 29.2529 17.7738C28.7041 17.7738 28.304 17.3287 28.304 16.7144C28.304 16.14 28.6756 15.7672 29.2529 15.7672Z" fill="#800000"></path><path fill-rule="evenodd" clip-rule="evenodd" d="M17.2448 30.1365C18.6416 29.7067 19.2875 29.1875 19.217 28.5465C19.1255 27.7096 17.7346 27.0401 17.2506 26.8499V21.7869C18.2662 21.8136 18.6549 22.0836 18.6568 22.0855L18.9255 22.2852V21.1155H16.0234V30.1422H17.2201L17.2448 30.1346V30.1365ZM18.4548 28.6416C18.4491 28.7196 18.3424 28.9782 17.2525 29.2141V27.7686C17.8127 27.9987 18.4758 28.3772 18.4548 28.6416Z" fill="#800000"></path><path fill-rule="evenodd" clip-rule="evenodd" d="M20.6001 28.1433L22.498 25.8705V30.1442H23.6146V21.1175H22.498V24.3432L20.6001 26.521V21.1175H19.3711V30.1442H20.6001V28.1433Z" fill="#800000"></path><path fill-rule="evenodd" clip-rule="evenodd" d="M24.7309 30.1689L24.9196 30.1442C26.9222 29.8798 27.8826 29.4842 27.9454 28.8965C28.0255 28.1395 26.4859 27.4947 25.958 27.2969V21.8992C27.4996 21.9163 27.8807 22.1674 27.9092 22.1883L28.1322 22.4108L26.2115 27.1372H27.3605L28.1246 24.9461L28.7934 27.1372H30.0586L28.1436 22.4241L28.1912 22.4717V21.1213H24.729V30.1727L24.7309 30.1689ZM25.9599 28.1262C26.402 28.3544 26.8936 28.6968 26.865 28.9155C26.8574 28.9764 26.766 29.178 25.9599 29.332V28.1243V28.1262Z" fill="#800000"></path><path fill-rule="evenodd" clip-rule="evenodd" d="M34.3328 30.2564V21.34H33.1038V25.2162L31.206 26.7321V21.34H30.0894V30.1442H31.206V28.3811L33.1038 26.675V30.2564H34.3328Z" fill="#800000"></path><path fill-rule="evenodd" clip-rule="evenodd" d="M39.6931 30.2564V21.4561C40.8364 21.4979 41.4233 21.9677 41.4271 21.9715L41.7015 22.1997V20.7847H37.1245V22.4185L37.4351 21.9296C37.4465 21.9106 37.7152 21.5036 38.5765 21.4561V30.2564H39.6931Z" fill="#800000"></path><path fill-rule="evenodd" clip-rule="evenodd" d="M42.8331 23.7878L43.0408 23.8391V22.7892H40.4741V30.2563H43.0408V29.3092L42.715 29.2559C42.7207 29.2407 42.7245 29.235 42.7245 29.235C42.7245 29.2369 42.572 29.4328 41.7012 29.3776V27.4719C42.5816 27.4814 42.7969 27.5632 42.7988 27.5651L43.0408 27.6849V26.4676H41.7012V23.6565C42.0595 23.6242 42.6235 23.7364 42.8331 23.7878Z" fill="#800000"></path><path fill-rule="evenodd" clip-rule="evenodd" d="M44.6049 27.0459V24.9537C45.0375 24.7179 46.7448 23.6433 46.9487 21.3001L46.9639 21.1194H45.954L45.9464 21.2772C45.8664 22.7912 45.026 23.5178 44.6068 23.7897V21.1194H43.4902V30.2583H44.6068V27.9817C45.0089 28.1452 45.8664 28.6607 45.9464 30.1004L45.9559 30.2583H46.9658L46.9506 30.0776C46.7562 27.6336 45.127 27.1429 44.6068 27.0478L44.6049 27.0459Z" fill="#800000"></path><path fill-rule="evenodd" clip-rule="evenodd" d="M47.3949 20.6705V21.9524L47.6636 21.7527C47.9551 21.5359 48.8259 21.4674 49.2947 21.4541V23.2172C45.8401 26.4714 46.8157 28.3106 46.869 28.4C47.0462 28.6549 47.2806 28.7861 47.5607 28.7956C47.5702 28.7956 47.5779 28.7956 47.5855 28.7956C48.2143 28.7956 48.9231 28.1414 49.308 27.7305C49.369 29.7238 49.2432 30.321 49.1994 30.5264C49.188 30.5759 49.1823 30.6101 49.1823 30.6443V30.8117H50.2989V20.6705H47.3949ZM49.2947 24.5048V26.578C48.9403 27.0363 48.2753 27.721 47.8865 27.7324C47.8008 27.7324 47.7455 27.7058 47.6884 27.6374C47.6827 27.6297 47.1529 26.9279 49.2966 24.5067L49.2947 24.5048Z" fill="#800000"></path><path fill-rule="evenodd" clip-rule="evenodd" d="M38.3515 25.296C38.3515 24.1206 37.5112 23.2343 36.3984 23.2343C35.2856 23.2343 34.4434 24.1206 34.4434 25.296C34.4434 26.4714 35.3199 27.3578 36.3984 27.3578C37.4769 27.3578 38.3515 26.4144 38.3515 25.296ZM37.2349 25.296C37.2349 25.8799 36.8595 26.3554 36.3984 26.3554C35.9373 26.3554 35.4475 25.8933 35.4475 25.296C35.4475 24.6988 35.9582 24.2366 36.3984 24.2366C36.8595 24.2366 37.2349 24.7121 37.2349 25.296Z" fill="#800000"></path><path fill-rule="evenodd" clip-rule="evenodd" d="M18.6069 40.3938L18.7269 40.4223L19.249 39.5474L19.007 39.5075C18.9251 39.4942 17.0196 39.1366 16.9148 35.6503C16.7052 32.1868 18.9041 31.8293 19.0032 31.8141L19.1747 31.7912L19.0051 30.7737L18.8298 30.8174C18.7974 30.825 15.5771 31.6752 15.5771 35.6636C15.6915 39.6463 18.5802 40.3862 18.6088 40.3919L18.6069 40.3938Z" fill="#800000"></path><path fill-rule="evenodd" clip-rule="evenodd" d="M20.4876 30.6006L20.4609 30.5911H19.4834V40.6221H20.7105V34.5491C21.1659 34.357 22.8751 33.5658 22.8618 32.5159C22.8523 31.7913 22.0748 31.1636 20.4876 30.6006ZM21.8633 32.5768C21.8805 32.9457 21.2364 33.3737 20.7105 33.6228V31.7646C21.4441 32.01 21.8519 32.2953 21.8633 32.5749V32.5768Z" fill="#800000"></path><path fill-rule="evenodd" clip-rule="evenodd" d="M24.6187 37.326V31.2625C25.4876 31.2853 26.0669 31.4717 26.0726 31.4755L26.2936 31.5478V30.593H23.3916V40.624H24.7026L24.7273 40.6163C26.1012 40.1713 26.77 39.6673 26.7719 39.0796C26.7757 38.1704 25.1122 37.5066 24.6187 37.3298V37.326ZM25.8211 39.1195C25.8154 39.1975 25.7087 39.4561 24.6187 39.692V38.2465C25.1789 38.4766 25.842 38.8551 25.8211 39.1195Z" fill="#800000"></path><path fill-rule="evenodd" clip-rule="evenodd" d="M30.0895 38.3911V31.9282H28.9748V34.1611L27.6334 36.122V31.9282H26.4062V38.2789H27.6334V37.83L28.9748 35.7778V38.3911H30.0895Z" fill="#800000"></path><path fill-rule="evenodd" clip-rule="evenodd" d="M32.5457 31.5459V38.0829C32.5057 38.1989 32.3246 38.6954 32.0521 39.1556C31.7911 39.5988 31.3929 40.0971 30.9794 39.9602L30.6897 39.8632L30.8936 40.6772L30.9622 40.7114C31.0689 40.7647 31.1833 40.7913 31.3052 40.7913C31.5053 40.7913 31.7244 40.719 31.9588 40.5745C32.7343 40.0971 33.5499 38.876 33.5499 38.5584V30.7014H30.4535L30.4268 30.8365C30.4001 30.9715 30.3105 31.4204 30.3105 31.5383V31.7703L30.5316 31.698C30.543 31.6942 31.7168 31.31 32.5438 31.5497L32.5457 31.5459Z" fill="#800000"></path><path fill-rule="evenodd" clip-rule="evenodd" d="M37.6823 30.4789H34.7783V40.3995H37.6823V39.4504L37.6899 38.8874L37.3831 39.3477C37.3831 39.3477 37.1449 39.5931 36.0074 39.6159V35.9432C36.9887 35.9698 37.284 36.2266 37.284 36.2266L37.5698 36.5138V35.0493H35.8949V31.2606C37.1678 31.272 37.385 31.4242 37.3945 31.4299C37.3945 31.4299 37.3793 31.4185 37.366 31.3899L37.6823 31.3157V30.4789Z" fill="#800000"></path><path fill-rule="evenodd" clip-rule="evenodd" d="M17.1376 46.7996V41.6872C17.473 41.6168 18.1818 41.8013 18.5877 41.9497L18.8125 42.0314V41.0671H16.021V50.2061H17.2195L17.2443 50.1985C18.6448 49.7553 19.3308 49.2456 19.3384 48.6407C19.3518 47.6993 17.6368 46.9879 17.1376 46.8015V46.7996ZM18.34 48.6788C18.3304 48.7853 18.1913 49.0459 17.1376 49.276V47.7259C17.7016 47.9789 18.3666 48.3916 18.34 48.6788Z" fill="#800000"></path><path fill-rule="evenodd" clip-rule="evenodd" d="M22.393 49.3216C22.3835 49.3254 21.3945 49.6145 20.3751 49.5498V46.617C20.8 46.5961 21.7166 46.7768 22.0672 46.8585L22.273 46.9061V45.6375H20.3751V41.9363C20.8191 41.8963 21.8099 42.0142 22.1929 42.0694L22.3835 42.096V41.069H19.4814V50.4304H22.6064V49.2588L22.3911 49.3235L22.393 49.3216Z" fill="#800000"></path><path fill-rule="evenodd" clip-rule="evenodd" d="M26.6289 50.9858H27.8579V42.3889C28.8297 42.3148 30.2207 42.5126 30.2341 42.5145L30.4246 42.5411V41.5121H26.6289V50.9858Z" fill="#800000"></path><path fill-rule="evenodd" clip-rule="evenodd" d="M33.9482 43.534C33.9749 42.8607 33.2261 42.2406 31.6579 41.6358L31.6293 41.6244H30.6479V50.8736H31.7646V45.2571C32.2619 45.0955 33.9082 44.4906 33.9482 43.534ZM32.9193 43.3628C32.9288 43.707 32.2886 44.1007 31.7665 44.329V42.5754C32.7535 42.9025 32.9155 43.2068 32.9193 43.3628Z" fill="#800000"></path><path fill-rule="evenodd" clip-rule="evenodd" d="M42.5952 40.8446H38.6871V42.0999L38.9462 41.9306C38.95 41.9306 39.2511 41.7347 39.7465 41.7347H41.4767V44.0817C41.0937 44.6694 38.8338 48.1842 38.5937 49.314H37.2866L37.3513 49.5289C37.3513 49.5289 37.46 49.8941 37.5724 50.3601L37.3818 50.2326C37.3818 50.2326 37.1208 50.0539 37.1208 49.8142V41.1755H33.8834V42.3528L34.1025 42.2805C34.1082 42.2786 34.718 42.0827 36.0023 42.0675V44.2662C35.6059 44.561 33.7329 46.0369 33.2165 48.1005C32.8811 49.4414 33.489 49.8751 33.7671 50.0006C34.4112 50.2897 35.3144 49.9416 36.0023 49.1789V50.537H37.6124C37.6829 50.8489 37.7515 51.1931 37.7915 51.505L38.1193 51.5241C38.3022 50.7956 38.3632 50.4114 38.3727 50.2022H43.1611C43.1802 50.4 43.2202 50.6967 43.2469 50.8812C43.3517 51.6192 43.3631 51.6971 43.5346 51.6971L43.687 51.6857L43.708 51.507C43.9271 50.653 44.5712 49.5746 44.5788 49.5631L44.7312 49.3102H42.5933V40.8408L42.5952 40.8446ZM36.008 45.55V47.9826C35.3887 48.9488 34.8971 49.1866 34.5922 49.2132C34.314 49.2379 34.1387 49.101 34.0854 49.0515C33.7538 48.2223 35.1658 46.4572 36.008 45.55ZM41.4786 45.8981V49.314H39.7942C39.9314 48.8537 40.6802 47.3702 41.4786 45.8981Z" fill="#800000"></path><path fill-rule="evenodd" clip-rule="evenodd" d="M24.4513 43.4065C23.2546 43.4065 22.3857 44.367 22.3857 45.6907C22.3857 46.8471 23.2927 47.7544 24.4513 47.7544C25.5107 47.7544 26.4063 46.8091 26.4063 45.6907C26.4063 44.3879 25.566 43.4065 24.4513 43.4065ZM25.2878 45.6907C25.2878 46.3051 24.8895 46.7501 24.3389 46.7501C23.9006 46.7501 23.3899 46.288 23.3899 45.6907C23.3899 44.9908 23.8815 44.521 24.3389 44.521C24.9067 44.521 25.2878 44.9908 25.2878 45.6907Z" fill="#800000"></path><path fill-rule="evenodd" clip-rule="evenodd" d="M57.0554 30.5341C57.0554 15.9347 45.2186 4.12158 30.5922 4.12158C15.9658 4.12158 4.13086 15.9347 4.13086 30.5341C4.13086 45.1335 15.9658 56.9466 30.5941 56.9466C45.2224 56.9466 57.0573 45.1354 57.0573 30.5341H57.0554ZM30.5922 55.6095C16.747 55.6095 5.47041 44.3537 5.47041 30.5341C5.47041 16.7145 16.747 5.45866 30.5922 5.45866C44.4373 5.45866 55.712 16.7145 55.712 30.5341C55.712 44.3537 44.5479 55.6095 30.5922 55.6095Z" fill="#800000"></path><path d="M80.9252 35.945V25.7886H83.0725V29.9791H87.4316V25.7886H89.574V35.945H87.4316V31.7496H83.0725V35.945H80.9252ZM93.095 35.945H90.7939L94.3001 25.7886H97.0673L100.568 35.945H98.2674L95.7233 28.1095H95.644L93.095 35.945ZM92.9512 31.9529H98.3864V33.6291H92.9512V31.9529ZM101.791 35.945V25.7886H105.798C106.568 25.7886 107.224 25.9358 107.767 26.23C108.309 26.5209 108.722 26.9259 109.006 27.445C109.294 27.9608 109.438 28.5559 109.438 29.2303C109.438 29.9047 109.292 30.4998 109.002 31.0156C108.711 31.5314 108.289 31.933 107.737 32.2207C107.188 32.5083 106.524 32.6521 105.743 32.6521H103.189V30.9313H105.396C105.809 30.9313 106.15 30.8602 106.418 30.7181C106.689 30.5726 106.891 30.3726 107.023 30.118C107.158 29.8601 107.226 29.5642 107.226 29.2303C107.226 28.8931 107.158 28.5988 107.023 28.3476C106.891 28.093 106.689 27.8963 106.418 27.7574C106.147 27.6153 105.803 27.5442 105.386 27.5442H103.938V35.945H101.791ZM120.166 30.8668C120.166 31.9744 119.956 32.9166 119.536 33.6935C119.119 34.4705 118.551 35.0639 117.83 35.4739C117.113 35.8805 116.306 36.0839 115.41 36.0839C114.507 36.0839 113.697 35.8789 112.98 35.4689C112.263 35.059 111.696 34.4655 111.279 33.6886C110.862 32.9117 110.654 31.9711 110.654 30.8668C110.654 29.7593 110.862 28.817 111.279 28.0401C111.696 27.2632 112.263 26.6714 112.98 26.2647C113.697 25.8548 114.507 25.6498 115.41 25.6498C116.306 25.6498 117.113 25.8548 117.83 26.2647C118.551 26.6714 119.119 27.2632 119.536 28.0401C119.956 28.817 120.166 29.7593 120.166 30.8668ZM117.989 30.8668C117.989 30.1494 117.881 29.5444 117.666 29.0518C117.455 28.5592 117.156 28.1856 116.769 27.931C116.382 27.6764 115.929 27.5491 115.41 27.5491C114.891 27.5491 114.438 27.6764 114.051 27.931C113.664 28.1856 113.363 28.5592 113.149 29.0518C112.937 29.5444 112.831 30.1494 112.831 30.8668C112.831 31.5843 112.937 32.1893 113.149 32.6819C113.363 33.1745 113.664 33.5481 114.051 33.8026C114.438 34.0572 114.891 34.1845 115.41 34.1845C115.929 34.1845 116.382 34.0572 116.769 33.8026C117.156 33.5481 117.455 33.1745 117.666 32.6819C117.881 32.1893 117.989 31.5843 117.989 30.8668ZM121.206 38.3948V34.2341H121.895C122.13 34.0655 122.345 33.8274 122.54 33.52C122.735 33.2092 122.902 32.7811 123.041 32.2356C123.18 31.6867 123.279 30.9693 123.338 30.0833L123.626 25.7886H130.346V34.2341H131.457V38.3849H129.394V35.945H123.269V38.3948H121.206ZM124.375 34.2341H128.283V27.5591H125.56L125.401 30.0833C125.358 30.7544 125.287 31.3495 125.188 31.8686C125.092 32.3876 124.975 32.8422 124.836 33.2323C124.701 33.6192 124.547 33.9531 124.375 34.2341ZM132.762 35.945V25.7886H134.909V29.9791H139.269V25.7886H141.411V35.945H139.269V31.7496H134.909V35.945H132.762ZM144.932 35.945H142.631L146.137 25.7886H148.904L152.405 35.945H150.104L147.56 28.1095H147.481L144.932 35.945ZM144.788 31.9529H150.223V33.6291H144.788V31.9529ZM156.86 35.945V25.7886H163.599V27.5591H159.007V29.5427H160.659C161.462 29.5427 162.155 29.6733 162.736 29.9345C163.322 30.1924 163.773 30.5577 164.09 31.0305C164.408 31.5033 164.566 32.0603 164.566 32.7017C164.566 33.3398 164.408 33.9035 164.09 34.3928C163.773 34.8788 163.322 35.259 162.736 35.5334C162.155 35.8078 161.462 35.945 160.659 35.945H156.86ZM159.007 34.2192H160.659C161.042 34.2192 161.366 34.1498 161.631 34.0109C161.895 33.8688 162.095 33.682 162.231 33.4505C162.37 33.2158 162.439 32.9596 162.439 32.6819C162.439 32.2785 162.285 31.938 161.978 31.6603C161.674 31.3793 161.234 31.2388 160.659 31.2388H159.007V34.2192ZM165.956 25.7886H168.099V32.176H168.183L172.572 25.7886H174.451V35.945H172.304V29.5526H172.23L167.816 35.945H165.956V25.7886ZM176.225 35.945V25.7886H182.965V27.5591H178.373V29.5427H180.024C180.828 29.5427 181.52 29.6733 182.102 29.9345C182.687 30.1924 183.138 30.5577 183.456 31.0305C183.773 31.5033 183.932 32.0603 183.932 32.7017C183.932 33.3398 183.773 33.9035 183.456 34.3928C183.138 34.8788 182.687 35.259 182.102 35.5334C181.52 35.8078 180.828 35.945 180.024 35.945H176.225ZM178.373 34.2192H180.024C180.408 34.2192 180.732 34.1498 180.996 34.0109C181.261 33.8688 181.461 33.682 181.596 33.4505C181.735 33.2158 181.804 32.9596 181.804 32.6819C181.804 32.2785 181.651 31.938 181.343 31.6603C181.039 31.3793 180.599 31.2388 180.024 31.2388H178.373V34.2192ZM184.771 35.945V34.2192L185.059 34.1944C185.429 34.1647 185.728 34.0242 185.957 33.7729C186.185 33.5183 186.355 33.1133 186.467 32.5579C186.583 31.9992 186.657 31.2487 186.69 30.3064L186.859 25.7886H193.752V35.945H191.665V27.5095H188.853L188.694 31.0454C188.641 32.1827 188.506 33.1117 188.287 33.8324C188.072 34.5531 187.729 35.0854 187.256 35.4293C186.786 35.7731 186.143 35.945 185.327 35.945H184.771ZM195.523 25.7886H197.665V32.176H197.749L202.138 25.7886H204.018V35.945H201.87V29.5526H201.796L197.382 35.945H195.523V25.7886ZM215.125 30.8668C215.125 31.9744 214.915 32.9166 214.495 33.6935C214.079 34.4705 213.51 35.0639 212.789 35.4739C212.072 35.8805 211.265 36.0839 210.369 36.0839C209.467 36.0839 208.657 35.8789 207.939 35.4689C207.222 35.059 206.655 34.4655 206.238 33.6886C205.822 32.9117 205.613 31.9711 205.613 30.8668C205.613 29.7593 205.822 28.817 206.238 28.0401C206.655 27.2632 207.222 26.6714 207.939 26.2647C208.657 25.8548 209.467 25.6498 210.369 25.6498C211.265 25.6498 212.072 25.8548 212.789 26.2647C213.51 26.6714 214.079 27.2632 214.495 28.0401C214.915 28.817 215.125 29.7593 215.125 30.8668ZM212.948 30.8668C212.948 30.1494 212.841 29.5444 212.626 29.0518C212.414 28.5592 212.115 28.1856 211.728 27.931C211.341 27.6764 210.888 27.5491 210.369 27.5491C209.85 27.5491 209.397 27.6764 209.01 27.931C208.624 28.1856 208.323 28.5592 208.108 29.0518C207.896 29.5444 207.79 30.1494 207.79 30.8668C207.79 31.5843 207.896 32.1893 208.108 32.6819C208.323 33.1745 208.624 33.5481 209.01 33.8026C209.397 34.0572 209.85 34.1845 210.369 34.1845C210.888 34.1845 211.341 34.0572 211.728 33.8026C212.115 33.5481 212.414 33.1745 212.626 32.6819C212.841 32.1893 212.948 31.5843 212.948 30.8668ZM215.865 27.5591V25.7886H224.207V27.5591H221.097V35.945H218.975V27.5591H215.865ZM225.58 35.945V25.7886H232.424V27.5591H227.728V29.9791H232.072V31.7496H227.728V34.1746H232.444V35.945H225.58ZM240.275 35.945L237.012 31.6157H236.278V35.945H234.131V25.7886H236.278V29.8452H236.71L240.082 25.7886H242.755L238.793 30.4998L242.939 35.945H240.275ZM245.769 35.945H243.468L246.974 25.7886H249.741L253.242 35.945H250.941L248.397 28.1095H248.318L245.769 35.945ZM245.625 31.9529H251.06V33.6291H245.625V31.9529ZM266.658 29.3444H264.486C264.446 29.0633 264.365 28.8137 264.243 28.5955C264.121 28.374 263.964 28.1856 263.772 28.0302C263.58 27.8748 263.359 27.7558 263.107 27.6731C262.859 27.5905 262.59 27.5491 262.299 27.5491C261.773 27.5491 261.316 27.6797 260.925 27.9409C260.535 28.1988 260.233 28.5757 260.018 29.0716C259.803 29.5642 259.696 30.1626 259.696 30.8668C259.696 31.5909 259.803 32.1992 260.018 32.6918C260.236 33.1844 260.54 33.5563 260.93 33.8076C261.32 34.0589 261.772 34.1845 262.284 34.1845C262.572 34.1845 262.838 34.1465 263.083 34.0704C263.331 33.9944 263.55 33.8836 263.742 33.7382C263.934 33.5894 264.093 33.4092 264.218 33.1976C264.347 32.986 264.437 32.7447 264.486 32.4736L266.658 32.4835C266.602 32.9497 266.461 33.3993 266.237 33.8324C266.015 34.2622 265.716 34.6474 265.339 34.9879C264.965 35.3251 264.519 35.5929 264 35.7913C263.484 35.9863 262.901 36.0839 262.25 36.0839C261.344 36.0839 260.534 35.8789 259.82 35.4689C259.109 35.059 258.547 34.4655 258.133 33.6886C257.723 32.9117 257.518 31.9711 257.518 30.8668C257.518 29.7593 257.727 28.817 258.143 28.0401C258.56 27.2632 259.125 26.6714 259.839 26.2647C260.553 25.8548 261.357 25.6498 262.25 25.6498C262.838 25.6498 263.384 25.7324 263.886 25.8977C264.392 26.0631 264.84 26.3044 265.23 26.6218C265.62 26.9359 265.937 27.321 266.182 27.7773C266.43 28.2335 266.589 28.7559 266.658 29.3444ZM268.198 35.945V25.7886H272.205C272.975 25.7886 273.632 25.9358 274.174 26.23C274.716 26.5209 275.129 26.9259 275.414 27.445C275.701 27.9608 275.845 28.5559 275.845 29.2303C275.845 29.9047 275.7 30.4998 275.409 31.0156C275.118 31.5314 274.696 31.933 274.144 32.2207C273.595 32.5083 272.931 32.6521 272.15 32.6521H269.597V30.9313H271.803C272.217 30.9313 272.557 30.8602 272.825 30.7181C273.096 30.5726 273.298 30.3726 273.43 30.118C273.565 29.8601 273.633 29.5642 273.633 29.2303C273.633 28.8931 273.565 28.5988 273.43 28.3476C273.298 28.093 273.096 27.8963 272.825 27.7574C272.554 27.6153 272.21 27.5442 271.793 27.5442H270.345V35.945H268.198ZM277.24 35.945V25.7886H283.979V27.5591H279.387V29.5427H281.039C281.842 29.5427 282.535 29.6733 283.116 29.9345C283.702 30.1924 284.153 30.5577 284.47 31.0305C284.788 31.5033 284.946 32.0603 284.946 32.7017C284.946 33.3398 284.788 33.9035 284.47 34.3928C284.153 34.8788 283.702 35.259 283.116 35.5334C282.535 35.8078 281.842 35.945 281.039 35.945H277.24ZM279.387 34.2192H281.039C281.422 34.2192 281.746 34.1498 282.011 34.0109C282.275 33.8688 282.475 33.682 282.611 33.4505C282.749 33.2158 282.819 32.9596 282.819 32.6819C282.819 32.2785 282.665 31.938 282.358 31.6603C282.054 31.3793 281.614 31.2388 281.039 31.2388H279.387V34.2192ZM286.336 25.7886H288.479V32.176H288.563L292.952 25.7886H294.831V35.945H292.684V29.5526H292.61L288.196 35.945H286.336V25.7886ZM300.672 25.7886H302.794V32.8703C302.794 33.5249 302.647 34.0936 302.353 34.5763C302.062 35.059 301.657 35.4309 301.138 35.6921C300.619 35.9533 300.016 36.0839 299.328 36.0839C298.716 36.0839 298.161 35.9764 297.662 35.7615C297.166 35.5433 296.772 35.2127 296.481 34.7697C296.19 34.3234 296.047 33.763 296.05 33.0885H298.187C298.194 33.3563 298.248 33.5861 298.351 33.7779C298.457 33.9663 298.601 34.1118 298.782 34.2143C298.968 34.3134 299.186 34.363 299.437 34.363C299.702 34.363 299.925 34.3068 300.107 34.1944C300.292 34.0787 300.432 33.9101 300.528 33.6886C300.624 33.4671 300.672 33.1943 300.672 32.8703V25.7886ZM304.57 35.945V25.7886H311.413V27.5591H306.717V29.9791H311.061V31.7496H306.717V34.1746H311.433V35.945H304.57Z" fill="#800000"></path></svg>